<svg id="Layer_1" data-name="Layer 1" xmlns="http://www.w3.org/2000/svg" viewBox="0 0 100 100"><title>Untitled-1</title><path d="M56.49,87.1q-1.88,0-3.77-.16A43.8,43.8,0,0,1,13,47.1,43.23,43.23,0,0,1,24.26,14.2,43.7,43.7,0,0,1,55.9,0,43.81,43.81,0,0,1,100,43a43.14,43.14,0,0,1-8.62,26.54L94.25,85a.6.6,0,0,1-.22.58.61.61,0,0,1-.62.07L80.72,79.7A43,43,0,0,1,56.49,87.1ZM56.42,1.2h-.51A42.49,42.49,0,0,0,25.15,15,42,42,0,0,0,14.22,47,42.59,42.59,0,0,0,52.81,85.75a42,42,0,0,0,27.51-7.23.6.6,0,0,1,.59,0L92.85,84l-2.72-14.5a.6.6,0,0,1,.11-.47A42.45,42.45,0,0,0,56.42,1.2Z"/><path d="M17.77,100a.61.61,0,0,1-.24,0,.6.6,0,0,1-.36-.51l-1-15.62a43.4,43.4,0,0,1-7-60.45.6.6,0,1,1,1,.73,42.2,42.2,0,0,0,7,58.94.6.6,0,0,1,.22.43l1,14.72,10.18-8.34a.6.6,0,0,1,.59-.1,42.2,42.2,0,0,0,23.18,1.65.6.6,0,0,1,.25,1.18A43.37,43.37,0,0,1,29,91L18.15,99.86A.6.6,0,0,1,17.77,100Z"/><circle cx="43.55" cy="43.55" r="2.15"/><circle cx="56.43" cy="43.55" r="2.15"/><circle cx="69.32" cy="43.55" r="2.15"/></svg>