<svg id="Layer_1" data-name="Layer 1" xmlns="http://www.w3.org/2000/svg" viewBox="0 0 122 100"><title>Untitled-1</title><path d="M36.26,46.33a.6.6,0,0,0-.85,0l-3.78,3.78-3.79-3.78a.6.6,0,0,0-.85,0l-4.21,4.21a.6.6,0,1,0,.85.85l3.78-3.78,3.79,3.78a.6.6,0,0,0,.85,0l3.78-3.78,3.79,3.78a.6.6,0,0,0,.85-.85Z"/><path d="M106.88,52.12a9,9,0,1,0-5.25,16.38,9.12,9.12,0,0,0,1.52-.13,9,9,0,0,0,3.74-16.25Zm-3.94,15.06a7.82,7.82,0,1,1,6.41-9A7.83,7.83,0,0,1,102.94,67.19Z"/><path d="M121.41,59.68l-3.59-.78-.7-4.18,3.14-1.91a.6.6,0,0,0,.25-.73A20.08,20.08,0,0,0,117,46.25a.6.6,0,0,0-.76-.12l-3.3,2-3.37-2.57,1-3.68a.6.6,0,0,0-.32-.71,20.05,20.05,0,0,0-7.65-1.89.6.6,0,0,0-.61.46L101,43.38l-4.2.57-1.75-3.1a.61.61,0,0,0-.74-.27A20,20,0,0,0,87.54,45a.6.6,0,0,0-.08.77l2.17,3.14L87.29,52.4l-3.76-.78a.61.61,0,0,0-.68.37,20.1,20.1,0,0,0-1.44,6.67.6.6,0,0,0,.47.61l3.59.78.7,4.18L83,66.14a.6.6,0,0,0-.25.73,20.08,20.08,0,0,0,3.54,5.83.6.6,0,0,0,.76.12l3.3-2,3.37,2.57-1,3.68a.6.6,0,0,0,.32.71,20.06,20.06,0,0,0,7.76,1.9h0a.6.6,0,0,0,.59-.48l.78-3.59,4.18-.7,1.91,3.14a.6.6,0,0,0,.73.25A20.05,20.05,0,0,0,115.76,74a.6.6,0,0,0,.08-.77l-2.17-3.14L116,66.55l3.76.78a.61.61,0,0,0,.68-.37,20.08,20.08,0,0,0,1.44-6.67A.6.6,0,0,0,121.41,59.68ZM119.51,66l-3.66-.76a.6.6,0,0,0-.63.26l-2.79,4.21a.6.6,0,0,0,0,.68l2.11,3.05A18.83,18.83,0,0,1,109.07,77l-1.86-3a.61.61,0,0,0-.61-.28l-5,.84a.6.6,0,0,0-.49.47l-.76,3.49A18.84,18.84,0,0,1,94,76.93l1-3.58a.6.6,0,0,0-.22-.64l-4-3.06a.6.6,0,0,0-.67,0l-3.21,1.92A18.88,18.88,0,0,1,84.1,66.9l3-1.86a.6.6,0,0,0,.28-.61l-.84-5a.6.6,0,0,0-.47-.49l-3.49-.76a18.89,18.89,0,0,1,1.15-5.3l3.66.76a.6.6,0,0,0,.63-.26l2.79-4.21a.6.6,0,0,0,0-.68l-2.11-3.05a18.83,18.83,0,0,1,5.55-3.57l1.69,3a.6.6,0,0,0,.61.3l5-.67a.6.6,0,0,0,.5-.45l.9-3.59A18.83,18.83,0,0,1,109.25,42l-1,3.58a.6.6,0,0,0,.22.64l4,3.07a.61.61,0,0,0,.67,0l3.21-1.92A18.88,18.88,0,0,1,119.19,52l-3,1.86a.6.6,0,0,0-.28.61l.84,5a.6.6,0,0,0,.47.49l3.49.76A18.86,18.86,0,0,1,119.51,66Z"/><path d="M20.9,2.42a63.67,63.67,0,0,1,24.48-.23c12.45,2.24,30,9.28,43.63,30L81.6,28.85a.6.6,0,0,0-.5,1.1l9.25,4.22a.6.6,0,0,0,.85-.55l-.09-10.17a.6.6,0,1,0-1.21,0L90,31.51C63.28-9.2,21,1.14,20.59,1.25a.6.6,0,0,0,.3,1.17Z"/><path d="M93.22,87.21l-10.15.54a.6.6,0,1,0,.06,1.2l8-.43c-17.24,10.83-37.55-2.83-37.76-3a.6.6,0,1,0-.68,1c.15.11,10.92,7.37,23.6,7.37a28.65,28.65,0,0,0,15.66-4.49L88.89,97a.6.6,0,0,0,1.12.45L93.81,88a.6.6,0,0,0-.59-.83Z"/><path d="M55.71,62.51c6.82-9.61,9.11-18.56,7-27.34-2.54-10.55-11-18.88-22.16-21.72a35.68,35.68,0,0,0-7.7-1.09H30.73A35.71,35.71,0,0,0,23,13.45C11.9,16.29,3.41,24.61.87,35.16c-2.11,8.79.18,17.73,7,27.34.6.85,1.21,1.66,1.82,2.45a32,32,0,0,1,4.56,7.33A30.29,30.29,0,0,1,16,80.55l.1.83a4.41,4.41,0,0,0,.8,2.39A4,4,0,0,0,19.23,85c.54.11,1.07.19,1.61.26V96.59A3.41,3.41,0,0,0,24.26,100H39.7a3.41,3.41,0,0,0,3.41-3.41V85.16c.42-.05.83-.11,1.24-.2a4,4,0,0,0,2.36-1.19,4.41,4.41,0,0,0,.8-2.39l.1-.83a30.29,30.29,0,0,1,1.73-8.26A32,32,0,0,1,53.89,65C54.5,64.16,55.11,63.35,55.71,62.51ZM41.9,96.59a2.21,2.21,0,0,1-2.2,2.2H24.26a2.21,2.21,0,0,1-2.2-2.2V85.33c.85.06,1.7.08,2.54.08l1.87,0,1.94,0h2.47c2.4,0,4.8,0,7.2,0h.76c1,0,2,0,3.07-.09Zm6.31-24.75a31.21,31.21,0,0,0-1.81,8.58l-.1.83A3.36,3.36,0,0,1,45.78,83a3,3,0,0,1-1.68.78,26.92,26.92,0,0,1-5.28.38H34.87a.6.6,0,0,0,0-.21c0-24.86,8.13-28.16,8.25-28.21a.6.6,0,0,0-.39-1.14c-.37.13-9.06,3.39-9.06,29.35a.6.6,0,0,0,0,.21H29.49a.6.6,0,0,0,0-.21c0-26-8.69-29.22-9.06-29.35a.6.6,0,0,0-.4,1.14c.08,0,8.25,3.29,8.25,28.21a.6.6,0,0,0,0,.21l-1.93,0a31.77,31.77,0,0,1-7-.4A3,3,0,0,1,17.8,83a3.35,3.35,0,0,1-.53-1.75l-.1-.83a31.22,31.22,0,0,0-1.81-8.58,33,33,0,0,0-4.72-7.61c-.6-.79-1.2-1.59-1.79-2.42C2.25,52.5,0,43.87,2,35.44c2.43-10.12,10.59-18.1,21.29-20.83a34,34,0,0,1,16.91,0c10.7,2.73,18.85,10.71,21.29,20.83,2,8.43-.2,17.05-6.8,26.36-.59.84-1.2,1.63-1.79,2.42A32.94,32.94,0,0,0,48.21,71.84Z"/></svg>