<svg id="Layer_1" data-name="Layer 1" xmlns="http://www.w3.org/2000/svg" viewBox="0 0 104 100"><title>Untitled-1</title><path d="M66,100c-2.28,0-4.7-.92-7.05-1.82s-4.73-1.8-6.91-1.8-4.58.92-6.91,1.8c-3.13,1.19-6.36,2.43-9.23,1.5s-4.94-4-6.8-6.83c-1.37-2.12-2.66-4.12-4.32-5.32S20.62,85.64,18.27,85c-3.29-.88-6.68-1.79-8.52-4.31s-1.64-6-1.47-9.36c.12-2.45.25-5-.4-7s-2.1-3.73-3.67-5.65C2,56-.22,53.24-.22,50S2,44,4.22,41.32c1.57-1.93,3.05-3.75,3.67-5.65s.53-4.55.4-7c-.17-3.38-.35-6.87,1.47-9.36S15,15.87,18.27,15c2.35-.63,4.78-1.28,6.47-2.51s3-3.21,4.32-5.32c1.86-2.88,3.78-5.85,6.8-6.83s6.1.3,9.23,1.5c2.32.89,4.73,1.8,6.91,1.8s4.58-.92,6.91-1.8C62,.63,65.27-.6,68.14.33s4.94,4,6.8,6.83c1.37,2.12,2.66,4.12,4.32,5.32s4.12,1.88,6.47,2.51c3.29.88,6.68,1.79,8.52,4.31s1.64,6,1.47,9.36c-.12,2.45-.25,5,.4,7s2.1,3.73,3.67,5.65C102,44,104.22,46.76,104.22,50s-2.25,6-4.43,8.68c-1.57,1.93-3.05,3.75-3.67,5.65s-.53,4.55-.4,7c.17,3.38.35,6.87-1.47,9.36S89,84.13,85.73,85c-2.35.63-4.78,1.28-6.47,2.51s-3,3.21-4.32,5.32c-1.86,2.88-3.78,5.85-6.8,6.83A7,7,0,0,1,66,100ZM52,95.18c2.4,0,4.91,1,7.33,1.88,3.07,1.17,6,2.28,8.44,1.48s4.42-3.64,6.17-6.34c1.37-2.11,2.78-4.3,4.62-5.64s4.41-2,6.86-2.7C88.65,83,91.7,82.18,93.28,80s1.41-5.29,1.24-8.6c-.13-2.56-.26-5.2.46-7.43s2.31-4.11,3.88-6c2-2.52,4.17-5.12,4.17-7.93s-2.12-5.42-4.17-7.93c-1.57-1.93-3.19-3.92-3.88-6s-.59-4.87-.46-7.43c.17-3.32.33-6.45-1.24-8.6s-4.64-3-7.86-3.87c-2.46-.66-5-1.34-6.86-2.7S75.31,9.92,73.94,7.8c-1.75-2.7-3.55-5.5-6.17-6.34s-5.37.3-8.44,1.48C56.91,3.86,54.4,4.82,52,4.82s-4.91-1-7.33-1.88c-3.07-1.17-6-2.28-8.44-1.48S31.81,5.1,30.06,7.8c-1.37,2.11-2.78,4.3-4.62,5.64s-4.41,2-6.86,2.7C15.35,17,12.3,17.82,10.72,20s-1.41,5.29-1.24,8.6c.13,2.56.26,5.2-.46,7.43s-2.31,4.11-3.88,6C3.09,44.58,1,47.19,1,50s2.12,5.42,4.17,7.93C6.71,59.86,8.33,61.85,9,64s.59,4.87.46,7.43c-.17,3.32-.33,6.45,1.24,8.6s4.64,3,7.86,3.87c2.46.66,5,1.34,6.86,2.7s3.25,3.52,4.62,5.64c1.75,2.7,3.55,5.5,6.17,6.34s5.37-.3,8.44-1.48C47.09,96.14,49.6,95.18,52,95.18Z"/><path d="M60.92,52.38A43.1,43.1,0,0,0,53.33,49l-.74-.28V27.42a18.88,18.88,0,0,1,11.66,4.35.59.59,0,0,0,.79-.89,20.14,20.14,0,0,0-12.45-4.65V19.18a.59.59,0,0,0-1.19,0v7.06c-.53,0-1.06,0-1.57.11a12.2,12.2,0,0,0-9,5.18A9.91,9.91,0,0,0,40.57,42c2.32,3.92,6.54,5.83,10.84,7.48v23a18.43,18.43,0,0,1-12.74-7,.59.59,0,1,0-1,.71,19.67,19.67,0,0,0,13.7,7.52v8.35a.59.59,0,0,0,1.19,0V73.78H53a16.22,16.22,0,0,0,2.33-.17c5.54-.8,9.8-4.54,10.84-9.52A11,11,0,0,0,60.92,52.38Zm-19.33-11a8.72,8.72,0,0,1,.27-9.23A11.18,11.18,0,0,1,50,27.52c.47-.06.94-.08,1.42-.1V48.22C47.45,46.67,43.63,44.86,41.59,41.41ZM65,63.86c-.94,4.49-4.81,7.86-9.85,8.59a15.41,15.41,0,0,1-2.56.14V49.94l.32.12a42.28,42.28,0,0,1,7.37,3.32A9.83,9.83,0,0,1,65,63.86Z"/></svg>