<svg id="Layer_1" data-name="Layer 1" xmlns="http://www.w3.org/2000/svg" viewBox="0 0 113 100"><title>Untitled-1</title><path d="M112,98.8h-5.27v-66a3.22,3.22,0,0,0-3.21-3.21H93.06a3.22,3.22,0,0,0-3.21,3.21v66h-11V44.56a3.22,3.22,0,0,0-3.21-3.21H65.2A3.22,3.22,0,0,0,62,44.56V98.8H51V58.93a3.22,3.22,0,0,0-3.21-3.21H37.35a3.22,3.22,0,0,0-3.21,3.21V98.8h-11V74.59a3.22,3.22,0,0,0-3.21-3.21H9.5a3.22,3.22,0,0,0-3.21,3.21V98.8H1A.6.6,0,0,0,1,100H112a.6.6,0,0,0,0-1.2Zm-90,0H7.49V74.59a2,2,0,0,1,2-2H19.94a2,2,0,0,1,2,2Zm27.85,0H35.34V58.93a2,2,0,0,1,2-2H47.8a2,2,0,0,1,2,2Zm27.85,0H63.19V44.56a2,2,0,0,1,2-2H75.65a2,2,0,0,1,2,2Zm27.85,0H91v-66a2,2,0,0,1,2-2H103.5a2,2,0,0,1,2,2Z"/><path d="M17.68,46.37a.59.59,0,0,0,.3-.08L93,2.91,88.45,11.7a.72.72,0,0,0,1.28.67L95.34,1.58A.72.72,0,0,0,94.73.52L82.58,0a.72.72,0,1,0-.06,1.44l9.9.43-75,43.38a.6.6,0,0,0,.3,1.12Z"/></svg>