<svg id="Layer_1" data-name="Layer 1" xmlns="http://www.w3.org/2000/svg" viewBox="0 0 105 100"><title>Untitled-1</title><path d="M15.21,6.83a3.71,3.71,0,1,0,3.71,3.71A3.71,3.71,0,0,0,15.21,6.83Zm0,6.21a2.5,2.5,0,1,1,2.5-2.5A2.5,2.5,0,0,1,15.21,13Z"/><path d="M15.21,26.69a3.71,3.71,0,1,0,3.71,3.71A3.71,3.71,0,0,0,15.21,26.69Zm0,6.21a2.5,2.5,0,1,1,2.5-2.5A2.5,2.5,0,0,1,15.21,32.9Z"/><path d="M11.5,50.26a3.71,3.71,0,1,0,3.71-3.71A3.71,3.71,0,0,0,11.5,50.26Zm6.21,0a2.5,2.5,0,1,1-2.5-2.5A2.5,2.5,0,0,1,17.71,50.26Z"/><path d="M61.15,9.93H56.8a.6.6,0,0,0,0,1.2h4.35a.6.6,0,1,0,0-1.2Z"/><path d="M73.56,9.93H69.22a.6.6,0,1,0,0,1.2h4.35a.6.6,0,0,0,0-1.2Z"/><path d="M69.22,31h4.35a.6.6,0,0,0,0-1.2H69.22a.6.6,0,1,0,0,1.2Z"/><path d="M100,41.68a.61.61,0,0,0,.2-.22l4.39-7.9a.6.6,0,0,0-.1-.72l-4.39-4.39a.6.6,0,0,0-.72-.1l-7.9,4.39a.61.61,0,0,0-.22.2l-6.11,9.6-1.68,1.68V42.82a3.08,3.08,0,0,0-1.27-2.48,3.08,3.08,0,0,0,1.27-2.48V23a3.07,3.07,0,0,0-1.25-2.46,3,3,0,0,0,1.25-2.43V3a3,3,0,0,0-3-3H3.34a3,3,0,0,0-3,3v15a3,3,0,0,0,1.25,2.43A3.07,3.07,0,0,0,.33,23v14.9A3.08,3.08,0,0,0,1.6,40.33,3.08,3.08,0,0,0,.33,42.82v14.9A3.09,3.09,0,0,0,3.41,60.8H33.14a.6.6,0,1,0,0-1.2H3.41a1.88,1.88,0,0,1-1.88-1.88V42.82a1.88,1.88,0,0,1,1.88-1.88H33.53a15,15,0,0,0,20,17.23l4,4-.42.42a5.07,5.07,0,0,0-1.46,3.59c0,2.07-.18,3.35-2.24,3.76-1.06.21-1.79.3-2.33.37-1.93.24-2,.35-4.84,3.15L33.85,86a3.09,3.09,0,0,0,0,4.36l3.5,3.49,0,0,5.27,5.27a3.09,3.09,0,0,0,4.36,0L59.44,86.65c2.8-2.8,2.91-2.91,3.15-4.84.07-.54.16-1.28.37-2.33.41-2.06,1.7-2.22,3.83-2.25a5,5,0,0,0,3.52-1.45l.42-.42L93.29,97.91a6.34,6.34,0,0,0,4.51,1.85,6.67,6.67,0,0,0,6.64-6.56,6.32,6.32,0,0,0-1.85-4.58L76.08,62.11,90.4,47.79ZM82.27,42.82v2.62h0L70.84,56.87l-8-8a15.41,15.41,0,0,0,.76-7.93h16.8A1.88,1.88,0,0,1,82.27,42.82Zm-78.93-23a1.81,1.81,0,0,1-1.81-1.81V3A1.81,1.81,0,0,1,3.34,1.2H80.46A1.81,1.81,0,0,1,82.27,3v15a1.81,1.81,0,0,1-1.81,1.81H3.34Zm.07,19.87a1.88,1.88,0,0,1-1.88-1.88V23a1.88,1.88,0,0,1,1.88-1.88h77A1.88,1.88,0,0,1,82.27,23v14.9a1.88,1.88,0,0,1-1.88,1.88H63.34a14.85,14.85,0,0,0-3.89-6.87A15.22,15.22,0,0,0,42.24,30a.6.6,0,0,0-.17,1l7.28,7.27A4.56,4.56,0,0,1,46.13,46h0a4.53,4.53,0,0,1-3.22-1.34L35.63,37.4a.6.6,0,0,0-1,.17,15.56,15.56,0,0,0-.82,2.16ZM54.12,57a.6.6,0,0,0-.65-.13,13.79,13.79,0,0,1-18.06-18l6.65,6.65a5.73,5.73,0,0,0,4.08,1.69h0a5.76,5.76,0,0,0,4.07-9.84l-6.65-6.65a13.79,13.79,0,0,1,18,18.06.6.6,0,0,0,.13.65L70,57.72l-3.51,3.51-1.77-1.77a3.17,3.17,0,0,0-4.36,0l-1.9,1.9ZM66.71,76c-1.81,0-4.3,0-4.93,3.21-.22,1.1-.31,1.86-.38,2.42-.19,1.51-.19,1.51-2.81,4.14L46.14,98.25a1.89,1.89,0,0,1-2.66,0L40,94.75l0,0L34.7,89.47a1.89,1.89,0,0,1,0-2.66L47.15,74.36c2.62-2.62,2.62-2.62,4.14-2.81.56-.07,1.32-.16,2.42-.38,3.17-.63,3.2-3.12,3.22-5A3.83,3.83,0,0,1,58,63.48l3.17-3.17a1.93,1.93,0,0,1,2.66,0l8.78,8.78a1.89,1.89,0,0,1,0,2.66l-3.17,3.17A3.87,3.87,0,0,1,66.71,76Zm35,13.45a5.12,5.12,0,0,1,1.5,3.72,5.47,5.47,0,0,1-5.38,5.38,5.31,5.31,0,0,1-3.72-1.5L71.59,74.5l1.9-1.9a3.09,3.09,0,0,0,0-4.36l-1.77-1.77L75.23,63ZM89.6,46.89,70.87,65.62l-3.54-3.54L86.06,43.35l.08-.1,6.06-9.53,7.37-4.1,3.75,3.75-4.09,7.37L89.7,46.81Z"/></svg>