<svg id="Layer_1" data-name="Layer 1" xmlns="http://www.w3.org/2000/svg" viewBox="0 0 121 100"><title>Untitled-1</title><path d="M118.33,0H92.44a3,3,0,0,0-3,3V18.35H2.67a3,3,0,0,0-3,3V82.87a3,3,0,0,0,3,3H31.3L27.9,99.25a.6.6,0,0,0,.58.75H70.83a.6.6,0,0,0,0-1.2H54.67L58,85.89h40.1a3,3,0,0,0,3-3V50.82h17.26a3,3,0,0,0,3-3V3A3,3,0,0,0,118.33,0Zm-8.1,40.16-4.65-5.6,2.8-2.92,7.08,8.52Zm-1.57,0h-18V36.44l8-8.35Zm8.36,0-8.15-9.81a.61.61,0,0,0-.44-.22.65.65,0,0,0-.46.19l-3.17,3.31L99.13,26.8a.61.61,0,0,0-.44-.22.62.62,0,0,0-.46.19L90.63,34.7V11h29.51V40.16ZM92.44,1.2h25.89A1.81,1.81,0,0,1,120.14,3V9.77H90.63V3A1.81,1.81,0,0,1,92.44,1.2ZM45.77,71.78l-11-12.67,7.47-7.47L59.7,71.78Zm-1.59,0H.86V63L20,43.83Zm9.25,27H29.26l3.29-12.91H56.71ZM98.06,84.68H2.67A1.81,1.81,0,0,1,.86,82.87V73h99v9.89A1.81,1.81,0,0,1,98.06,84.68Zm1.81-12.9H61.29L42.75,50.36a.6.6,0,0,0-.88,0L34,58.19,20.47,42.55a.6.6,0,0,0-.88,0L.86,61.27V21.36a1.81,1.81,0,0,1,1.81-1.81H89.43V47.81a3,3,0,0,0,3,3h7.43Zm18.47-22.17H92.44a1.81,1.81,0,0,1-1.81-1.81V41.37h29.51v6.44A1.81,1.81,0,0,1,118.33,49.61Z"/></svg>