<svg id="Layer_1" data-name="Layer 1" xmlns="http://www.w3.org/2000/svg" viewBox="0 0 100 100"><title>Untitled-1</title><path d="M89.22,21.56a10.79,10.79,0,1,0-8.31-3.92L64.38,34.17a13.69,13.69,0,0,0-18.58,0L28.42,16.79a6.6,6.6,0,1,0-.85.85L44.95,35a13.69,13.69,0,0,0,0,18.58l-27,27a10.82,10.82,0,1,0,.85.85l27-27A13.7,13.7,0,0,0,55,58.08h-.53V78.47a10.78,10.78,0,1,0,1.2,0V58.08h-.53a13.71,13.71,0,0,0,9.22-3.63l15,15a6.6,6.6,0,1,0,.85-.85l-15-15a13.69,13.69,0,0,0,0-18.58l16.5-16.5A10.74,10.74,0,0,0,89.22,21.56ZM64.67,89.22a9.58,9.58,0,1,1-9.58-9.58A9.59,9.59,0,0,1,64.67,89.22Zm24.55-88a9.58,9.58,0,1,1-9.58,9.58A9.59,9.59,0,0,1,89.22,1.2ZM18,12.58A5.39,5.39,0,1,1,23.36,18,5.39,5.39,0,0,1,18,12.58ZM10.78,98.2a9.58,9.58,0,1,1,9.58-9.58A9.59,9.59,0,0,1,10.78,98.2Zm79-24.55a5.39,5.39,0,1,1-5.39-5.39A5.39,5.39,0,0,1,89.81,73.65ZM55.09,56.88A12.57,12.57,0,1,1,67.66,44.31,12.58,12.58,0,0,1,55.09,56.88Z"/></svg>