<?xml version="1.0" encoding="utf-8"?>
<!-- Generator: Adobe Illustrator 24.0.3, SVG Export Plug-In . SVG Version: 6.00 Build 0)  -->
<svg version="1.1" id="Layer_1" xmlns="http://www.w3.org/2000/svg" xmlns:xlink="http://www.w3.org/1999/xlink" x="0px" y="0px"
	 viewBox="0 0 192 44" style="enable-background:new 0 0 192 44;" xml:space="preserve">
<g>
	<polygon points="9.7,37.1 13.8,37.1 23.5,4.7 19.3,4.7 	"/>
	<path d="M48,14.9c-2.4,0.1-4.5,1.8-5.1,4.1h-1.6c-0.3-2.4-2.4-4.2-4.8-4.1c-2.4,0-4.5,1.8-4.8,4.1h-2l1.2-3.6h-3.6v17.6h4.3v-8.7
		c0-2,0.1-5.8,3.7-5.8c1.9,0,3.1,1,3.1,3.8v10.8h4.2v-8.7c0-2,0.1-5.8,3.7-5.8c1.9,0,3.1,1,3.1,3.8V33h4.3V21.5
		c0-0.3,0.1-0.6,0.1-0.9C53.9,17.4,51.2,14.9,48,14.9z"/>
	<rect x="58.3" y="8.2" width="4.6" height="4.4"/>
	<rect x="58.5" y="15.4" width="4.3" height="17.6"/>
	<path d="M77.8,14.9c-2.7,0.1-4.9,2-5.5,4.6h-2l1.5-4.1H68v17.6h4.3v-8c0-2.2,0.1-6.5,4-6.5c1.9,0,3.2,1.1,3.2,3.8V33h4.3V21.5
		c0.1-0.4,0.1-0.8,0-1.2C83.7,17.1,81,14.7,77.8,14.9z"/>
	<path d="M95.5,27.9v-9.1h4.7v-3.4h-4.7V9.9h-4.3v5.6h-3.8v3.4h3.8v9.8c0,0.3,0,0.5,0,0.8c0.2,2.3,2.2,3.9,4.5,3.7h5.2v-3.5h-3.8
		C95.9,29.5,95.5,29,95.5,27.9z"/>
	<g>
		<rect x="133.5" y="8.3" width="4.3" height="24.8"/>
		<path d="M158.3,28.6v-7.1c0-4.3-2.6-6.6-7.5-6.6c-5,0-7.7,2.6-8.1,5.2l4,1c0.5-1.9,2.2-3.1,4.2-2.9c2.3,0,3.2,1,3.2,2.7v0.6
			c-5.8,0.5-11.1,2-11.1,7c0,0.2,0,0.4,0,0.6c0.3,2.8,2.8,4.7,5.6,4.4c2.6,0.1,4.9-1.7,5.4-4.2h1.5c0.1,2.7,0.8,3.7,3.7,3.7h1.8
			v-3.4h-1.7C158.4,29.6,158.3,29.4,158.3,28.6z M150,30.3c-1.8,0-2.7-0.9-2.7-2.2c0-2.5,3.1-3.3,6.7-3.7v1.4c0,0.2,0,0.4,0,0.6
			C154,28.6,152.2,30.4,150,30.3z"/>
		<path d="M174.9,14.3c-2.8-0.1-5.2,1.7-6,4.4h-1.8l1.7-11.2h-4.4v25.4h4.1v-3.7c1,2.6,3.6,4.4,6.4,4.3c4.3,0,7.4-3.8,7.4-9.6
			S179.3,14.3,174.9,14.3z M177.7,25.4c-0.4,3.3-2.2,4.6-4.4,4.6c-0.7,0-1.4-0.2-2-0.5c-1.3-0.7-2.2-2-2.5-4.2
			c-0.1-0.5-0.1-1-0.1-1.5c0-4.1,1.9-6.1,4.6-6.1c0,0,0,0,0,0h0c0.1,0,0.3,0,0.4,0c0,0,0,0,0.1,0c0.1,0,0.3,0,0.4,0c0,0,0.1,0,0.1,0
			c0.1,0,0.2,0,0.3,0.1c0,0,0.1,0,0.1,0c0.1,0,0.1,0,0.2,0.1c0.1,0,0.1,0,0.2,0.1c0.1,0,0.1,0.1,0.2,0.1c0.1,0,0.1,0.1,0.2,0.1
			c0.1,0,0.1,0.1,0.2,0.1c0.1,0,0.1,0.1,0.2,0.1c0.1,0.1,0.2,0.1,0.3,0.2c0,0,0.1,0,0.1,0.1c1,0.9,1.6,2.5,1.6,5.1
			C177.8,24.4,177.7,24.9,177.7,25.4z"/>
	</g>
	<path d="M114.1,22.8l-1.5,4.6c-0.3-0.7-0.7-1.6-1.9-4.6l-3.2-7.3h-4.5l8,16.9l-0.5,1.6c-0.5,1.4-1.1,1.8-2.3,1.8h-4v3.5h4.5
		c2.6,0.2,4.9-1.6,5.3-4.1l7-19.7h-4.4L114.1,22.8z"/>
</g>
</svg>
